<svg width="24" height="24" viewBox="0 0 24 24" fill="none" xmlns="http://www.w3.org/2000/svg">
<path d="M11.4898 15.9976C11.2732 15.9981 11.0633 15.9168 10.8966 15.7678L5.33486 10.7703C5.14556 10.6007 5.02652 10.3569 5.00392 10.0926C4.98132 9.82832 5.05702 9.56518 5.21436 9.36107C5.3717 9.15695 5.59779 9.0286 5.8429 9.00423C6.08801 8.97986 6.33206 9.06148 6.52136 9.23113L11.4898 13.7088L16.4583 9.39105C16.5531 9.30803 16.6622 9.24603 16.7793 9.20862C16.8964 9.1712 17.0192 9.15912 17.1407 9.17305C17.2621 9.18698 17.3798 9.22666 17.487 9.2898C17.5942 9.35294 17.6888 9.4383 17.7653 9.54097C17.8501 9.64374 17.9144 9.7643 17.9541 9.89511C17.9938 10.0259 18.0079 10.1641 17.9958 10.3011C17.9836 10.4381 17.9453 10.5709 17.8833 10.6912C17.8213 10.8115 17.7369 10.9167 17.6355 11.0002L12.0738 15.8277C11.9022 15.9532 11.6966 16.013 11.4898 15.9976Z" fill="#E6E6E6"/>
</svg>
