<svg width="57" height="57" viewBox="0 0 57 57" fill="none" xmlns="http://www.w3.org/2000/svg">
<path d="M37.8278 29.3522C37.8289 29.8576 37.6391 30.3474 37.2914 30.7365L25.6308 43.7138C25.2349 44.1555 24.6661 44.4332 24.0494 44.486C23.4328 44.5387 22.8187 44.3621 22.3425 43.9949C21.8662 43.6278 21.5667 43.1003 21.5099 42.5283C21.453 41.9564 21.6435 41.387 22.0393 40.9453L32.4872 29.3522L22.4125 17.7592C22.2187 17.538 22.0741 17.2834 21.9868 17.0101C21.8995 16.7369 21.8713 16.4503 21.9038 16.1669C21.9363 15.8835 22.0289 15.6089 22.1762 15.3588C22.3235 15.1087 22.5227 14.888 22.7623 14.7095C23.0021 14.5115 23.2834 14.3614 23.5886 14.2689C23.8938 14.1763 24.2163 14.1432 24.536 14.1717C24.8556 14.2001 25.1655 14.2894 25.4462 14.4341C25.7269 14.5787 25.9723 14.7756 26.1672 15.0123L37.4314 27.9896C37.7241 28.3899 37.8637 28.8697 37.8278 29.3522V29.3522Z" fill="white"/>
</svg>
