<svg width="57" height="57" viewBox="0 0 57 57" fill="none" xmlns="http://www.w3.org/2000/svg">
<path d="M19.1722 26.97C19.1711 26.4647 19.3609 25.9749 19.7086 25.5858L31.3692 12.6085C31.7651 12.1668 32.3339 11.889 32.9506 11.8363C33.5672 11.7836 34.1813 11.9602 34.6575 12.3273C35.1338 12.6944 35.4333 13.222 35.4901 13.7939C35.547 14.3658 35.3565 14.9353 34.9607 15.377L24.5128 26.97L34.5875 38.5631C34.7813 38.7843 34.9259 39.0389 35.0132 39.3121C35.1005 39.5854 35.1287 39.8719 35.0962 40.1553C35.0637 40.4387 34.9711 40.7134 34.8238 40.9635C34.6765 41.2136 34.4773 41.4342 34.2377 41.6127C33.9979 41.8108 33.7166 41.9608 33.4114 42.0534C33.1062 42.1459 32.7837 42.179 32.464 42.1506C32.1444 42.1222 31.8345 42.0328 31.5538 41.8882C31.2731 41.7435 31.0277 41.5467 30.8328 41.3099L19.5686 28.3326C19.2759 27.9323 19.1363 27.4526 19.1722 26.97Z" fill="white"/>
</svg>
