<svg width="24" height="25" viewBox="0 0 24 25" fill="none" xmlns="http://www.w3.org/2000/svg">
<g id="Icon/Fill/facebook">
<path id="Mask" fill-rule="evenodd" clip-rule="evenodd" d="M17 3.85156C17 3.57556 16.775 3.35156 16.5 3.35156H14C11.238 3.35156 9 5.36656 9 7.85156V10.5516H6.5C6.224 10.5516 6 10.7756 6 11.0516V13.6516C6 13.9276 6.224 14.1516 6.5 14.1516H9V20.8516C9 21.1276 9.224 21.3516 9.5 21.3516H12.5C12.775 21.3516 13 21.1276 13 20.8516V14.1516H15.619C15.844 14.1516 16.041 14.0016 16.102 13.7856L16.823 11.1856C16.912 10.8676 16.672 10.5516 16.342 10.5516H13V7.85156C13 7.35456 13.447 6.95156 14 6.95156H16.5C16.775 6.95156 17 6.72756 17 6.45156V3.85156Z" fill="#231F20"/>
<mask id="mask0_54_9" style="mask-type:alpha" maskUnits="userSpaceOnUse" x="6" y="3" width="11" height="19">
<path id="Mask_2" fill-rule="evenodd" clip-rule="evenodd" d="M17 3.85156C17 3.57556 16.775 3.35156 16.5 3.35156H14C11.238 3.35156 9 5.36656 9 7.85156V10.5516H6.5C6.224 10.5516 6 10.7756 6 11.0516V13.6516C6 13.9276 6.224 14.1516 6.5 14.1516H9V20.8516C9 21.1276 9.224 21.3516 9.5 21.3516H12.5C12.775 21.3516 13 21.1276 13 20.8516V14.1516H15.619C15.844 14.1516 16.041 14.0016 16.102 13.7856L16.823 11.1856C16.912 10.8676 16.672 10.5516 16.342 10.5516H13V7.85156C13 7.35456 13.447 6.95156 14 6.95156H16.5C16.775 6.95156 17 6.72756 17 6.45156V3.85156Z" fill="white"/>
</mask>
<g mask="url(#mask0_54_9)">
<g id="&#240;&#159;&#142;&#168; Color">
<rect id="Base" y="0.351562" width="24" height="24" fill="#9DD5D5"/>
</g>
</g>
</g>
</svg>
