<svg width="24" height="25" viewBox="0 0 24 25" fill="none" xmlns="http://www.w3.org/2000/svg">
<g id="Icon/Fill/google">
<path id="Mask" fill-rule="evenodd" clip-rule="evenodd" d="M17.4952 14.3325C16.8292 16.4745 15.1692 17.9575 12.9602 18.2845C9.58915 18.7835 6.27915 16.2275 6.01715 12.8275C5.74515 9.29954 8.52815 6.35254 12.0012 6.35254C12.8042 6.35254 13.5702 6.51054 14.2702 6.79654C14.5132 6.89554 14.7882 6.81054 14.9122 6.58054L16.3472 3.93354C16.4832 3.68054 16.3852 3.35454 16.1232 3.23654C14.8662 2.66854 13.4722 2.35254 12.0042 2.35254C6.38215 2.35254 1.84315 6.98854 2.00415 12.6455C2.15115 17.8065 6.41115 22.1245 11.5682 22.3435C17.1142 22.5775 21.7142 18.2975 21.9932 12.8745C22.0042 12.6765 22.0002 11.5235 21.9962 10.8475C21.9952 10.5715 21.7712 10.3525 21.4962 10.3525H12.4972C12.2212 10.3525 11.9972 10.5755 11.9972 10.8525V13.8325C11.9972 14.1075 12.2212 14.3325 12.4972 14.3325H17.4952" fill="#231F20"/>
<mask id="mask0_54_4" style="mask-type:alpha" maskUnits="userSpaceOnUse" x="2" y="2" width="21" height="21">
<path id="Mask_2" fill-rule="evenodd" clip-rule="evenodd" d="M17.4952 14.3325C16.8292 16.4745 15.1692 17.9575 12.9602 18.2845C9.58915 18.7835 6.27915 16.2275 6.01715 12.8275C5.74515 9.29954 8.52815 6.35254 12.0012 6.35254C12.8042 6.35254 13.5702 6.51054 14.2702 6.79654C14.5132 6.89554 14.7882 6.81054 14.9122 6.58054L16.3472 3.93354C16.4832 3.68054 16.3852 3.35454 16.1232 3.23654C14.8662 2.66854 13.4722 2.35254 12.0042 2.35254C6.38215 2.35254 1.84315 6.98854 2.00415 12.6455C2.15115 17.8065 6.41115 22.1245 11.5682 22.3435C17.1142 22.5775 21.7142 18.2975 21.9932 12.8745C22.0042 12.6765 22.0002 11.5235 21.9962 10.8475C21.9952 10.5715 21.7712 10.3525 21.4962 10.3525H12.4972C12.2212 10.3525 11.9972 10.5755 11.9972 10.8525V13.8325C11.9972 14.1075 12.2212 14.3325 12.4972 14.3325H17.4952" fill="white"/>
</mask>
<g mask="url(#mask0_54_4)">
<g id="&#240;&#159;&#142;&#168; Color">
<rect id="Base" y="0.351562" width="24" height="24" fill="#9DD5D5"/>
</g>
</g>
</g>
</svg>
