<svg width="24" height="25" viewBox="0 0 24 25" fill="none" xmlns="http://www.w3.org/2000/svg">
<g id="Icon/Fill/linkedin">
<path id="Mask" fill-rule="evenodd" clip-rule="evenodd" d="M2.99991 5.60156C2.99991 4.35956 4.00791 3.35156 5.24991 3.35156C6.49191 3.35156 7.49991 4.35956 7.49991 5.60156C7.49991 6.84356 6.49191 7.85156 5.24991 7.85156C4.00791 7.85156 2.99991 6.84356 2.99991 5.60156ZM15.1503 8.75196C11.9193 8.75196 9.29931 11.356 9.29931 14.566V20.451C9.29931 20.948 9.70331 21.352 10.2003 21.352H12.2993C12.7963 21.352 13.2003 20.948 13.2003 20.451V14.566C13.2003 13.43 14.1843 12.522 15.3523 12.639C16.3663 12.74 17.0993 13.667 17.0993 14.686V20.451C17.0993 20.948 17.5033 21.352 18.0003 21.352H20.0993C20.5963 21.352 21.0003 20.948 21.0003 20.451V14.566C21.0003 11.356 18.3803 8.75196 15.1503 8.75196ZM6.59951 9.65136H3.90051C3.40351 9.65136 2.99951 10.0544 2.99951 10.5514V20.4514C2.99951 20.9484 3.40351 21.3514 3.90051 21.3514H6.59951C7.09651 21.3514 7.49951 20.9484 7.49951 20.4514V10.5514C7.49951 10.0544 7.09651 9.65136 6.59951 9.65136Z" fill="#231F20"/>
<mask id="mask0_54_14" style="mask-type:alpha" maskUnits="userSpaceOnUse" x="2" y="3" width="20" height="19">
<path id="Mask_2" fill-rule="evenodd" clip-rule="evenodd" d="M2.99991 5.60156C2.99991 4.35956 4.00791 3.35156 5.24991 3.35156C6.49191 3.35156 7.49991 4.35956 7.49991 5.60156C7.49991 6.84356 6.49191 7.85156 5.24991 7.85156C4.00791 7.85156 2.99991 6.84356 2.99991 5.60156ZM15.1503 8.75196C11.9193 8.75196 9.29931 11.356 9.29931 14.566V20.451C9.29931 20.948 9.70331 21.352 10.2003 21.352H12.2993C12.7963 21.352 13.2003 20.948 13.2003 20.451V14.566C13.2003 13.43 14.1843 12.522 15.3523 12.639C16.3663 12.74 17.0993 13.667 17.0993 14.686V20.451C17.0993 20.948 17.5033 21.352 18.0003 21.352H20.0993C20.5963 21.352 21.0003 20.948 21.0003 20.451V14.566C21.0003 11.356 18.3803 8.75196 15.1503 8.75196ZM6.59951 9.65136H3.90051C3.40351 9.65136 2.99951 10.0544 2.99951 10.5514V20.4514C2.99951 20.9484 3.40351 21.3514 3.90051 21.3514H6.59951C7.09651 21.3514 7.49951 20.9484 7.49951 20.4514V10.5514C7.49951 10.0544 7.09651 9.65136 6.59951 9.65136Z" fill="white"/>
</mask>
<g mask="url(#mask0_54_14)">
<g id="&#240;&#159;&#142;&#168; Color">
<rect id="Base" y="0.351562" width="24" height="24" fill="#9DD5D5"/>
</g>
</g>
</g>
</svg>
