<svg width="24" height="25" viewBox="0 0 24 25" fill="none" xmlns="http://www.w3.org/2000/svg">
<g id="Icon/Fill/twitter">
<path id="Mask" fill-rule="evenodd" clip-rule="evenodd" d="M8.07693 20.3518C15.3229 20.3518 19.5149 14.7258 19.5149 9.38684C19.5149 9.23984 20.5449 8.35584 20.9859 6.51284C21.0759 6.13884 20.7119 5.84384 20.3689 6.00084C19.4889 6.40484 18.5959 6.08484 18.2079 5.62484C16.7159 3.99784 14.2209 3.91984 12.6339 5.44984C11.6109 6.43684 11.1769 7.90684 11.4939 9.30984C8.14293 9.54884 5.84193 7.96084 3.94993 5.78384C3.70593 5.50084 3.25293 5.64984 3.20193 6.02384C2.92193 8.10584 2.83393 13.1678 7.84993 16.0748C6.97893 17.3268 5.27393 18.0658 3.37593 18.3828C2.95593 18.4538 2.85593 19.0358 3.23993 19.2238C4.74393 19.9638 6.39693 20.3508 8.07693 20.3488" fill="#231F20"/>
<mask id="mask0_54_25" style="mask-type:alpha" maskUnits="userSpaceOnUse" x="3" y="4" width="18" height="17">
<path id="Mask_2" fill-rule="evenodd" clip-rule="evenodd" d="M8.07693 20.3518C15.3229 20.3518 19.5149 14.7258 19.5149 9.38684C19.5149 9.23984 20.5449 8.35584 20.9859 6.51284C21.0759 6.13884 20.7119 5.84384 20.3689 6.00084C19.4889 6.40484 18.5959 6.08484 18.2079 5.62484C16.7159 3.99784 14.2209 3.91984 12.6339 5.44984C11.6109 6.43684 11.1769 7.90684 11.4939 9.30984C8.14293 9.54884 5.84193 7.96084 3.94993 5.78384C3.70593 5.50084 3.25293 5.64984 3.20193 6.02384C2.92193 8.10584 2.83393 13.1678 7.84993 16.0748C6.97893 17.3268 5.27393 18.0658 3.37593 18.3828C2.95593 18.4538 2.85593 19.0358 3.23993 19.2238C4.74393 19.9638 6.39693 20.3508 8.07693 20.3488" fill="white"/>
</mask>
<g mask="url(#mask0_54_25)">
<g id="&#240;&#159;&#142;&#168; Color">
<rect id="Base" y="0.351562" width="24" height="24" fill="#9DD5D5"/>
</g>
</g>
</g>
</svg>
